<?xml version="1.0" encoding="UTF-8"?>
<svg width="158px" height="64px" viewBox="0 0 158 64" version="1.1" xmlns="http://www.w3.org/2000/svg" xmlns:xlink="http://www.w3.org/1999/xlink">
    <!-- Generator: Sketch 47.1 (45422) - http://www.bohemiancoding.com/sketch -->
    <title>404</title>
    <desc>Created with Sketch.</desc>
    <defs></defs>
    <g id="Invoices" stroke="none" stroke-width="1" fill="none" fill-rule="evenodd">
        <g id="Invoices/06a_404_page" transform="translate(-582.000000, -253.000000)">
            <g id="404" transform="translate(582.000000, 229.000000)">
                <polygon id="4" fill="#111111" opacity="0.879999995" points="36.784 65.648 29.568 65.648 29.568 43.472 23.232 43.472 22.88 65.648 8.712 65.648 21.472 26.4 14.344 26.4 0.88 68.376 0.88 72.16 22.792 72.16 22.792 88 29.568 88 29.568 72.16 36.784 72.16"></polygon>
                <polygon id="4-copy" fill="#111111" opacity="0.879999995" points="157.784 65.648 150.568 65.648 150.568 43.472 144.232 43.472 143.88 65.648 129.712 65.648 142.472 26.4 135.344 26.4 121.88 68.376 121.88 72.16 143.792 72.16 143.792 88 150.568 88 150.568 72.16 157.784 72.16"></polygon>
                <g id="attention-icn" transform="translate(49.000000, 24.000000)">
                    <circle id="Oval" fill="#FFAE2C" fill-rule="nonzero" cx="32" cy="32" r="32"></circle>
                    <g id="Group" transform="translate(30.000000, 19.000000)">
                        <path d="M2,18 L2,0 L2,18 Z" id="Shape" stroke="#FFFFFF" stroke-width="2" stroke-linecap="round" stroke-linejoin="round"></path>
                        <circle id="Oval" fill="#FFFFFF" fill-rule="nonzero" cx="2" cy="24.5" r="1.5"></circle>
                    </g>
                </g>
            </g>
        </g>
    </g>
</svg>