<svg xmlns="http://www.w3.org/2000/svg" width="30" height="30" viewBox="0 0 30 30">
    <g fill="#111" fill-rule="evenodd">
        <path d="M14 20a.997.997 0 0 1-.707-.293l-5-5a.999.999 0 1 1 1.414-1.414l4.288 4.288L26.191 5.202a1 1 0 0 1 1.425 1.403L14.712 19.702a.999.999 0 0 1-.708.298H14z"/>
        <path d="M23.842 13.285c.097.56.158 1.13.158 1.715 0 5.514-4.486 10-10 10S4 20.514 4 15 8.486 5 14 5a9.954 9.954 0 0 1 6.87 2.753l1.403-1.424A11.948 11.948 0 0 0 14 3C7.383 3 2 8.383 2 15s5.383 12 12 12c6.616 0 12-5.383 12-12 0-1.18-.179-2.32-.498-3.4l-1.66 1.685z"/>
    </g>
</svg>
