<svg xmlns="http://www.w3.org/2000/svg" width="82" height="82"><g fill="none" fill-rule="evenodd"><path fill="#FFF" stroke="#333" stroke-linecap="round" stroke-linejoin="round" stroke-width="2" d="M7 14.986A3.991 3.991 0 0 1 11.01 11l47.738.079c2.214.003 4.01 1.803 4.01 3.999v46.015a3.991 3.991 0 0 1-4.01 3.986L11.01 65C8.795 64.996 7 63.197 7 61V14.987z"/><g transform="translate(7 18)"><path fill="#FFF" stroke="#333" stroke-linecap="round" stroke-linejoin="round" stroke-width="2" d="M6 0h54.009A4 4 0 0 1 64 4v44c0 2.21-1.795 4-4.003 4H4.003A4.007 4.007 0 0 1 0 48V0"/><rect width="54" height="42" x="5" y="5" fill="#0388EF" rx="1"/></g><g fill="#FFF" stroke="#333" stroke-width="2"><path d="M76 36.994A1.996 1.996 0 0 0 73.999 35l-7.028.004c-4.954 0-8.971 4.028-8.971 8.998S62.017 53 66.971 53h7.007a2 2 0 0 0 2.001-1.995L76 36.995z"/><path stroke-linecap="round" stroke-linejoin="round" d="M67 41a3 3 0 1 0 0 6"/></g><path stroke="#FFF" stroke-linecap="round" stroke-linejoin="round" stroke-width="2" d="M47 36L36 49l-6-6"/></g></svg>