<svg xmlns="http://www.w3.org/2000/svg" width="30" height="30" viewBox="0 0 30 30">
    <g fill="#3F4D60" fill-rule="evenodd">
        <path fill-opacity="0" d="M0 30h30V0H0z"/>
        <path d="M22.206 11.313l1.061-1.06a1 1 0 0 0 0-1.415l-1.415-1.413a.999.999 0 0 0-1.414 0l-1.06 1.06a.502.502 0 0 0 0 .707l2.121 2.121a.5.5 0 0 0 .707 0M17.256 10.606l-8.672 8.672c-.11.11-.192.244-.242.391l-1.023 3.07a.5.5 0 0 0 .633.633l3.07-1.024c.147-.049.281-.132.391-.242l8.672-8.671a.5.5 0 0 0 0-.707l-2.122-2.122a.5.5 0 0 0-.707 0"/>
    </g>
</svg>
