<svg xmlns="http://www.w3.org/2000/svg" width="24" height="24" viewBox="0 0 24 24">
    <path fill="#0388EF" fill-rule="evenodd" d="M14.096 12.23c-.535.593-.998 1.107-.998 1.587a1 1 0 1 1-2 0c0-1.25.804-2.14 1.513-2.927.64-.71 1.192-1.322 1.192-2.091 0-.932-.49-1.566-1.348-1.737-.96-.194-1.986.312-2.336 1.147a1 1 0 1 1-1.845-.77c.715-1.712 2.68-2.718 4.574-2.338 1.795.359 2.955 1.81 2.955 3.698 0 1.537-.946 2.587-1.707 3.43m-1.983 6.733a1.2 1.2 0 1 1 0-2.4 1.2 1.2 0 0 1 0 2.4M12 0C5.372 0 0 5.373 0 12c0 6.628 5.372 12 12 12 6.627 0 12-5.372 12-12 0-6.627-5.373-12-12-12"/>
</svg>
