<svg xmlns="http://www.w3.org/2000/svg" width="90" height="90" viewBox="0 0 90 90">
    <g fill="none" fill-rule="evenodd">
        <path stroke="#8C94A0" stroke-dasharray="6,12" stroke-linecap="round" stroke-width="4" d="M45 88c23.748 0 43-19.252 43-43S68.748 2 45 2 2 21.252 2 45s19.252 43 43 43z"/>
        <path fill="#8C94A0" d="M58.586 31H55a2 2 0 0 1-2-2v-3.586c0-.89 1.078-1.336 1.708-.706l4.586 4.584c.628.63.182 1.708-.708 1.708M55 51H35a2 2 0 0 1 0-4h20a2 2 0 0 1 0 4m0 8H35a2 2 0 0 1 0-4h20a2 2 0 0 1 0 4m6.828-31.17l-5.656-5.658A4.002 4.002 0 0 0 53.342 21H31c-2.208 0-4 1.792-4 4v40c0 2.208 1.792 4 4 4h28a4 4 0 0 0 4-4V30.658a3.998 3.998 0 0 0-1.172-2.828"/>
    </g>
</svg>
