<svg xmlns="http://www.w3.org/2000/svg" width="90" height="90" viewBox="0 0 90 90">
    <g fill="none" fill-rule="evenodd">
        <path stroke="#8C94A0" stroke-dasharray="6,12" stroke-linecap="round" stroke-width="4" d="M45 88c23.748 0 43-19.252 43-43S68.748 2 45 2 2 21.252 2 45s19.252 43 43 43z"/>
        <path fill="#8C94A0" d="M29.05 41c0-6.618 5.382-12 12-12s12 5.382 12 12-5.382 12-12 12-12-5.382-12-12m33.29 20.662l-9.682-9.682c2.714-2.868 4.392-6.728 4.392-10.98 0-8.822-7.178-16-16-16s-16 7.178-16 16 7.178 16 16 16c3.124 0 6.036-.914 8.502-2.47l9.958 9.96a2.002 2.002 0 0 0 2.83 0c.78-.782.78-2.048 0-2.828"/>
    </g>
</svg>
