<svg xmlns="http://www.w3.org/2000/svg" width="82" height="82"><g fill="none" fill-rule="evenodd" transform="translate(7 7)"><circle cx="34" cy="34" r="34" stroke="#333" stroke-width="2"/><circle cx="34" cy="34" r="29" fill="#FFAE2C"/><path stroke="#FFF" stroke-linecap="round" stroke-width="2" d="M17.059 51c4.34 4.326 10.329 7 16.941 7 6.612 0 12.6-2.674 16.941-7M17.06 17c4.34-4.326 10.329-7 16.941-7 6.612 0 12.6 2.674 16.941 7"/><path d="M30 25h6a4 4 0 1 1 0 8h-6v-8zm0 8h6a5 5 0 0 1 0 10h-6V33z" stroke="#FFF" stroke-linecap="round" stroke-linejoin="round" stroke-width="2"/><circle cx="34" cy="19" r="2" fill="#FFF"/><circle cx="34" cy="49" r="2" fill="#FFF"/></g></svg>