<svg xmlns="http://www.w3.org/2000/svg" width="30" height="30" viewBox="0 0 30 30">
    <g fill="none" fill-rule="evenodd">
        <path fill="#000" fill-opacity="0" d="M0 30h30V0H0z"/>
        <path fill="#0388EF" d="M15 9c-1.103 0-2 .897-2 2s.897 2 2 2 2-.897 2-2-.897-2-2-2"/>
        <path fill="#0388EF" d="M23 12a1 1 0 1 1 0-2 1 1 0 0 1 0 2m-8 3a4 4 0 1 1 0-8 4 4 0 0 1 0 8m-8-3a1 1 0 1 1 0-2 1 1 0 0 1 0 2m18-8H5a2 2 0 0 0-2 2v10a2 2 0 0 0 2 2h20a2 2 0 0 0 2-2V6a2 2 0 0 0-2-2M26 22H4a1 1 0 0 1 0-2h22a1 1 0 0 1 0 2M26 26H4a1 1 0 0 1 0-2h22a1 1 0 0 1 0 2"/>
    </g>
</svg>
