<svg xmlns="http://www.w3.org/2000/svg" width="60" height="60" viewBox="0 0 60 60">
    <g fill="#FFF" fill-rule="evenodd">
        <path d="M30 40a2 2 0 0 1-1.414-.586l-10-10a2 2 0 1 1 2.828-2.828l8.575 8.575 24.394-24.757a1.999 1.999 0 1 1 2.849 2.807L31.425 39.403a2 2 0 0 1-1.417.597H30z"/>
        <path d="M49.685 26.57C49.879 27.689 50 28.83 50 30c0 11.029-8.971 20-20 20-11.028 0-20-8.971-20-20 0-11.028 8.972-20 20-20 5.324 0 10.155 2.104 13.742 5.506l2.804-2.847C42.236 8.545 36.415 5.999 30 5.999 16.767 6 6 16.768 6 30c0 13.235 10.767 24 24 24 13.234 0 24-10.765 24-24 0-2.361-.356-4.64-.995-6.798l-3.32 3.37z"/>
    </g>
</svg>
