<?xml version="1.0" encoding="UTF-8"?>
<svg width="16px" height="16px" viewBox="0 0 16 16" version="1.1" xmlns="http://www.w3.org/2000/svg" xmlns:xlink="http://www.w3.org/1999/xlink">
    <!-- Generator: Sketch 47.1 (45422) - http://www.bohemiancoding.com/sketch -->
    <title>Group 2</title>
    <desc>Created with Sketch.</desc>
    <defs></defs>
    <g id="Invoices" stroke="none" stroke-width="1" fill="none" fill-rule="evenodd">
        <g id="Invoices/02a_invoice_paid" transform="translate(-751.000000, -235.000000)">
            <g id="Group-2" transform="translate(747.000000, 231.000000)">
                <rect id="Rectangle" fill="#FFFFFF" opacity="0" x="0" y="0" width="24" height="24"></rect>
                <g id="copy_icn" transform="translate(12.000000, 12.000000) scale(1, -1) translate(-12.000000, -12.000000) translate(4.000000, 4.000000)" stroke="#8C94A0" stroke-width="2">
                    <rect id="Rectangle-5" x="1" y="1" width="10" height="10" rx="2"></rect>
                    <path d="M15,8.99861994 L15,3.5 L15,8.99861994 Z M15,15 L15,8.99861994 L15,13.9972399 C15,14.5528524 14.5523701,15 13.9972399,15 L8.99861994,15 L15,15 Z M14,4 L15,4 L15,3.5 L15,8.99861994 L15,4 Z M3,15 L4,16 L4,15 L8.99861994,15 L3.5,15 L4,15 L4,14 L3,15 Z" id="Combined-Shape"></path>
                </g>
            </g>
        </g>
    </g>
</svg>