<?xml version="1.0" encoding="UTF-8"?>
<svg width="70px" height="70px" viewBox="0 0 70 70" version="1.1" xmlns="http://www.w3.org/2000/svg" xmlns:xlink="http://www.w3.org/1999/xlink">
    <!-- Generator: Sketch 47.1 (45422) - http://www.bohemiancoding.com/sketch -->
    <title>Group 11</title>
    <desc>Created with Sketch.</desc>
    <defs></defs>
    <g id="Page-1" stroke="none" stroke-width="1" fill="none" fill-rule="evenodd">
        <g id="Invoices/01a_welcome_page" transform="translate(-681.000000, -523.000000)">
            <g id="Group-11" transform="translate(675.000000, 517.000000)">
                <rect id="Rectangle-12" fill="#FFFFFF" opacity="0" x="0" y="0" width="82" height="82"></rect>
                <g id="Group-8" transform="translate(7.000000, 7.000000)">
                    <circle id="Oval-5-Copy-4" stroke="#333333" stroke-width="2" cx="34" cy="34" r="34"></circle>
                    <circle id="Oval-5-Copy-6" fill="#FFAE2C" cx="34" cy="34" r="29"></circle>
                    <path d="M17.0589253,51 C21.3997211,55.3258435 27.3875692,58 34,58 C40.6124308,58 46.6002789,55.3258435 50.9410747,51 M17.0589253,17 C21.3997211,12.6741565 27.3875692,10 34,10 C40.6124308,10 46.6002789,12.6741565 50.9410747,17" id="Combined-Shape" stroke="#FFFFFF" stroke-width="2" stroke-linecap="round"></path>
                    <g id="Group-6" transform="translate(30.000000, 25.000000)" stroke="#FFFFFF" stroke-width="2" stroke-linecap="round" stroke-linejoin="round">
                        <path d="M0,0 L6,0 L6,0 C8.209139,-4.05812251e-16 10,1.790861 10,4 L10,4 L10,4 C10,6.209139 8.209139,8 6,8 L0,8 L0,0 Z" id="Rectangle-10"></path>
                        <path d="M0,8 L6,8 L6,8 C8.76142375,8 11,10.2385763 11,13 L11,13 L11,13 C11,15.7614237 8.76142375,18 6,18 L0,18 L0,8 Z" id="Rectangle-10-Copy"></path>
                    </g>
                    <circle id="Oval-3" fill="#FFFFFF" cx="34" cy="19" r="2"></circle>
                    <circle id="Oval-3-Copy" fill="#FFFFFF" cx="34" cy="49" r="2"></circle>
                </g>
            </g>
        </g>
    </g>
</svg>