<?xml version="1.0" encoding="UTF-8"?>
<svg width="72px" height="72px" viewBox="0 0 72 72" version="1.1" xmlns="http://www.w3.org/2000/svg" xmlns:xlink="http://www.w3.org/1999/xlink">
    <!-- Generator: Sketch 47.1 (45422) - http://www.bohemiancoding.com/sketch -->
    <title>Group 2</title>
    <desc>Created with Sketch.</desc>
    <defs></defs>
    <g id="Page-1" stroke="none" stroke-width="1" fill="none" fill-rule="evenodd">
        <g id="Invoices/01a_welcome_page" transform="translate(-680.000000, -337.000000)">
            <g id="Group-2" transform="translate(675.000000, 332.000000)">
                <rect id="Rectangle-12" fill="#FFFFFF" opacity="0" x="0" y="0" width="82" height="82"></rect>
                <circle id="Oval-5-Copy-4" stroke="#333333" stroke-width="2" cx="41" cy="41" r="34"></circle>
                <circle id="Oval-5-Copy-6" fill="#13B72A" cx="41" cy="41" r="29"></circle>
                <circle id="Oval-9" stroke="#333333" stroke-width="2" fill="#FFFFFF" cx="64.5" cy="17.5" r="11.5"></circle>
                <circle id="Oval-9-Copy" stroke="#333333" stroke-width="2" fill="#FFFFFF" cx="17.5" cy="64.5" r="11.5"></circle>
                <path d="M15,63 C18.2688154,66.7915948 22.3585619,69.879674 27,72" id="Oval-5-Copy-4" stroke="#333333" stroke-width="2" stroke-linecap="round"></path>
                <path d="M67,19 C63.9881262,15.2368735 60.2435188,12.1542042 56,10" id="Oval-5-Copy-4" stroke="#333333" stroke-width="2" stroke-linecap="round"></path>
                <rect id="Rectangle-11" stroke="#FFFFFF" stroke-width="2" stroke-linecap="round" stroke-linejoin="round" x="28" y="33" width="25" height="16"></rect>
                <path d="M46,45 L49,45" id="Path-6" stroke="#FFFFFF" stroke-width="2" stroke-linecap="round" stroke-linejoin="round"></path>
                <polyline id="Rectangle" stroke="#333333" stroke-width="2" stroke-linecap="round" stroke-linejoin="round" points="68 13 68 20 61 20"></polyline>
                <polyline id="Rectangle-Copy" stroke="#333333" stroke-width="2" stroke-linecap="round" stroke-linejoin="round" transform="translate(17.500000, 65.500000) scale(-1, -1) translate(-17.500000, -65.500000) " points="21 62 21 69 14 69"></polyline>
            </g>
        </g>
    </g>
</svg>