<?xml version="1.0" encoding="UTF-8"?>
<svg width="34px" height="38px" viewBox="0 0 34 38" version="1.1" xmlns="http://www.w3.org/2000/svg" xmlns:xlink="http://www.w3.org/1999/xlink">
    <!-- Generator: Sketch 47.1 (45422) - http://www.bohemiancoding.com/sketch -->
    <title>terms_icn</title>
    <desc>Created with Sketch.</desc>
    <defs></defs>
    <g id="Invoices" stroke="none" stroke-width="1" fill="none" fill-rule="evenodd">
        <g id="Invoices/01a_profile" transform="translate(-831.000000, -202.000000)">
            <g id="Group-5" transform="translate(824.000000, 196.000000)">
                <g id="terms_icn" transform="translate(0.000000, 1.000000)">
                    <rect id="Rectangle-3" fill="#D8D8D8" opacity="0" x="0" y="0" width="48" height="48"></rect>
                    <g id="Group-25" transform="translate(7.000000, 5.000000)" stroke-width="2" stroke="#333333">
                        <g id="lykke_placement_icn">
                            <g id="Group-3">
                                <path d="M23.9982494,36.5898772 L32.5898772,27.9982494 C32.7932886,27.794838 33,27.2940497 33,27.0066967 L33,2.99765987 C33,1.90062087 32.1015203,1 31.0023401,1 L2.99765987,1 C1.90062087,1 1,1.8984797 1,2.99765987 L1,35.0023401 C1,36.0993791 1.8984797,37 2.99765987,37 L23.0033715,37 C23.2953753,37 23.7953718,36.7927548 23.9982494,36.5898772 Z" id="Rectangle-26-Copy-4"></path>
                                <path d="M23,35.5870008 L31.5870008,27 L24.9987856,27 C23.8946831,27 23,27.8947527 23,28.9987856 L23,35.5870008 Z" id="Rectangle-26"></path>
                                <path d="M8,24 L20.6699219,23.96875" id="Path-125-Copy-2" stroke-linecap="round"></path>
                                <path d="M8,29 L18,29" id="Path-125-Copy-6" stroke-linecap="round"></path>
                                <path d="M10,15 L14,15" id="Path-125-Copy-6" stroke-linecap="round"></path>
                            </g>
                        </g>
                        <polyline id="Path-5" stroke-linecap="round" stroke-linejoin="round" points="8 17.934082 12 7 16 17.934082"></polyline>
                    </g>
                </g>
            </g>
        </g>
    </g>
</svg>